<svg width="26" height="26" viewBox="0 0 26 26" fill="#82A2BF" xmlns="http://www.w3.org/2000/svg">
    <path d="M16,0 C21.5228492,0 26,4.47715084 26,10 L26,10 L26,16 C26,21.5228492 21.5228492,26 16,26 L16,26 L0,26 L0,10 C0,4.47715084 4.47715084,0 10,0 L10,0 Z M16,1.75 L10,1.75 C5.44364916,1.75 1.75,5.44364916 1.75,10 L1.75,10 L1.75,24.25 L16,24.25 C20.471974,24.25 24.1129023,20.691886 24.2462179,16.2522251 L24.2462179,16.2522251 L24.25,16 L24.25,10 C24.25,5.44364916 20.5563508,1.75 16,1.75 L16,1.75 Z M6.98206,11.55561 C7.91276474,11.55561 8.66725,12.3100953 8.66725,13.2408 C8.66725,14.1715047 7.91276474,14.92599 6.98206,14.92599 C6.05135526,14.92599 5.29687,14.1715047 5.29687,13.2408 C5.29687,12.3100953 6.05135526,11.55561 6.98206,11.55561 Z M12.7594,11.55561 C13.6901047,11.55561 14.44459,12.3100953 14.44459,13.2408 C14.44459,14.1715047 13.6901047,14.92599 12.7594,14.92599 C11.8286953,14.92599 11.07421,14.1715047 11.07421,13.2408 C11.07421,12.3100953 11.8286953,11.55561 12.7594,11.55561 Z M18.5367,11.55561 C19.4674047,11.55561 20.22189,12.3100953 20.22189,13.2408 C20.22189,14.1715047 19.4674047,14.92599 18.5367,14.92599 C17.6059953,14.92599 16.85151,14.1715047 16.85151,13.2408 C16.85151,12.3100953 17.6059953,11.55561 18.5367,11.55561 Z" />
</svg>