<svg width="27" height="27" viewBox="0 0 27 27" fill="none" xmlns="http://www.w3.org/2000/svg">
<path d="M17.1719 26.2607V19.7153C17.1719 18.3597 16.0974 17.2607 14.7719 17.2607H11.5719C10.2464 17.2607 9.17188 18.3597 9.17188 19.7153V26.2607" stroke="#82A2BF" stroke-width="1.75"/>
<path fill-rule="evenodd" clip-rule="evenodd" d="M24.4219 12.1154V22.2602C24.4219 23.5028 23.4145 24.5102 22.1719 24.5102H17.1719V26.2602H22.1719C24.381 26.2602 26.1719 24.4693 26.1719 22.2602V12.1154C26.1719 10.9388 25.6538 9.82186 24.7556 9.06184L15.7556 1.44645C14.2643 0.184515 12.0795 0.184515 10.5881 1.44645L1.58811 9.06184C0.689904 9.82186 0.171875 10.9388 0.171875 12.1154V22.2602C0.171875 24.4693 1.96274 26.2602 4.17187 26.2602H9.17188V24.5102H4.17187C2.92923 24.5102 1.92188 23.5028 1.92188 22.2602V12.1154C1.92188 11.4535 2.21327 10.8253 2.7185 10.3978L11.7185 2.78238C12.5574 2.07254 13.7863 2.07254 14.6252 2.78238L23.6252 10.3978C24.1305 10.8253 24.4219 11.4535 24.4219 12.1154Z" fill="#82A2BF"/>
</svg>
