<svg width="26px" height="30px" viewBox="0 0 26 30" fill="#82A2BF" version="1.1" xmlns="http://www.w3.org/2000/svg">
    <path d="M16.5,27.0123 C16.5,28.5585 14.9312,29.8146 13,29.8146 C11.1353931,29.8146 9.60864266,28.643634 9.50556666,27.1711773 L9.50002,27.0123 L16.5,27.0123 Z M13,0.19 C14.6337579,0.19 15.975,1.46737405 15.975,3.065 C15.975,3.38960479 15.9189456,3.70752199 15.8110568,4.00798331 L15.7723096,4.10340111 C17.3594462,4.56577881 18.640404,5.42713842 19.6321213,6.59304532 L19.8402112,6.84750954 L20.0071497,7.06689867 C20.8598025,8.22471661 21.3100018,9.37895037 21.4954594,10.2488894 L21.5336204,10.4444701 L22.663,17.754 L22.8735961,17.8007037 C24.4098085,18.1805601 25.5851512,19.4407981 25.7540963,20.9966321 L25.7699261,21.1926086 L25.775,21.384 C25.775,23.3744664 24.1363125,24.9816121 22.1011475,25.0801148 L21.903,25.0849 L4.09704,25.0849 C1.97110844,25.0849 0.225,23.4386883 0.225,21.384 C0.225,19.6503568 1.46807916,18.2075138 3.13354062,17.7989505 L3.3202884,17.7578487 L3.336,17.754 L4.46946445,10.425911 C4.60184861,9.67688632 4.9552913,8.65076583 5.63781401,7.58361959 L5.81536304,7.31611494 L5.99283537,7.06690364 C7.03045629,5.65789656 8.43356656,4.62552308 10.2254022,4.10370624 L10.2339408,4.12521616 C10.0965346,3.79047021 10.025,3.43188393 10.025,3.065 C10.025,1.46737405 11.3662421,0.19 13,0.19 Z" />
</svg>