<svg width="27" height="23" viewBox="0 0 27 23" fill="none" xmlns="http://www.w3.org/2000/svg">
<mask id="path-1-inside-1_14917:26513" fill="white">
<path d="M22.5609 0.650265C19.1913 -0.973809 14.7841 0.553804 13.225 4.0559C11.6659 0.553804 7.25871 -0.975778 3.88909 0.650264C0.300243 2.38458 -1.41575 6.81387 1.41904 12.0385C3.28856 15.4926 6.5 18.1552 11.9363 22.541C12.6949 23.153 13.7551 23.153 14.5137 22.541C19.95 18.1549 23.1614 15.4907 25.031 12.0385C27.8658 6.81387 26.1498 2.38458 22.5609 0.650265Z"/>
</mask>
<path d="M22.5609 0.650265C19.1913 -0.973809 14.7841 0.553804 13.225 4.0559C11.6659 0.553804 7.25871 -0.975778 3.88909 0.650264C0.300243 2.38458 -1.41575 6.81387 1.41904 12.0385C3.28856 15.4926 6.5 18.1552 11.9363 22.541C12.6949 23.153 13.7551 23.153 14.5137 22.541C19.95 18.1549 23.1614 15.4907 25.031 12.0385C27.8658 6.81387 26.1498 2.38458 22.5609 0.650265Z" stroke="url(#paint0_linear_14917:26513)" stroke-width="3.5" mask="url(#path-1-inside-1_14917:26513)"/>
<defs>
<linearGradient id="paint0_linear_14917:26513" x1="13.225" y1="0" x2="13.225" y2="23" gradientUnits="userSpaceOnUse">
<stop stop-color="#82A2BF"/>
<stop offset="1" stop-color="#82A2BF"/>
</linearGradient>
</defs>
</svg>
