<svg width="26" height="26" viewBox="0 0 26 26" fill="#82A2BF" xmlns="http://www.w3.org/2000/svg">
    <path d="M1.41623,8.68184 C0.518029,9.44186 0,10.5588 0,11.7354 L0,21.8802 C0,24.0893 1.79086,25.8802 4,25.8802 L10,25.8802 L10,19.8803 C10,18.2235 10.3431,17.8803 12,17.8803 L14,17.8803 C15.6569,17.8803 16,18.2235 16,19.8803 L16,25.8802 L22,25.8802 C24.2091,25.8802 26,24.0893 26,21.8802 L26,11.7354 C26,10.5588 25.482,9.44186 24.5838,8.68184 L15.5838,1.066455 C14.0924,-0.195485 11.9076,-0.195485 10.4162,1.066455 L1.41623,8.68184 Z" />
</svg>