<svg width="26px" height="30px" viewBox="0 0 26 30" fill="#82A2BF" version="1.1" xmlns="http://www.w3.org/2000/svg">
    <path d="M16.5,27.0123 C16.5,28.5585 14.9312,29.8146 13,29.8146 C11.0688,29.8146 9.50002,28.5585 9.50002,27.0123 L9.50002,27.0123 Z M13,0.19 C14.6337579,0.19 15.975,1.46737405 15.975,3.065 C15.975,3.38960479 15.9189456,3.70752199 15.8110568,4.00798331 L15.7723096,4.10340111 C17.4728131,4.59880579 18.8218358,5.55222542 19.8402112,6.84750954 L19.8402112,6.84750954 L20.0071497,7.06689867 C20.9253912,8.31377953 21.3768818,9.55650359 21.5336204,10.4444701 L21.5336204,10.4444701 L22.663,17.754 L22.8735961,17.8007037 C24.4738174,18.1963874 25.6824699,19.5473464 25.7699261,21.1926086 L25.7699261,21.1926086 L25.775,21.384 C25.775,23.438675 24.0288855,25.0849 21.903,25.0849 L21.903,25.0849 L4.09704,25.0849 C1.97110844,25.0849 0.225,23.4386883 0.225,21.384 C0.225,19.5861478 1.56186428,18.1010354 3.3202884,17.7578487 L3.3202884,17.7578487 L3.336,17.754 L4.46946445,10.425911 C4.61288062,9.6144676 5.01573354,8.47782147 5.81536304,7.31611494 L5.81536304,7.31611494 L5.99283537,7.06690364 C7.03045629,5.65789656 8.43356656,4.62552308 10.2254022,4.10370624 L10.2339408,4.12521616 C10.0965346,3.79047021 10.025,3.43188393 10.025,3.065 C10.025,1.46737405 11.3662421,0.19 13,0.19 Z M13.03,5.469 L12.7747544,5.47302059 C10.2992133,5.54806916 8.57044907,6.51791037 7.40196713,8.10461636 C6.97299654,8.68712447 6.65126443,9.31483468 6.42347098,9.94184433 C6.32744792,10.2061512 6.26349071,10.4239449 6.22690166,10.5709875 L6.22690166,10.5709875 L6.19583086,10.7119267 L4.84712495,19.4331 L4.09704,19.4331 C2.91530809,19.4331 1.975,20.3196121 1.975,21.384 C1.975,22.4483879 2.91530809,23.3349 4.09704,23.3349 L4.09704,23.3349 L21.903,23.3349 C23.0846842,23.3349 24.025,22.4483765 24.025,21.384 C24.025,20.3196235 23.0846842,19.4331 21.903,19.4331 L21.903,19.4331 L21.1529178,19.4331 L19.8072549,10.7304918 C19.7825546,10.590741 19.7109703,10.3118778 19.576536,9.94184858 C19.3487391,9.31483932 19.0270022,8.6871294 18.5980253,8.10462133 C17.4315673,6.52068703 15.7033061,5.55039532 13.2374972,5.47345308 L13.2374972,5.47345308 L13.03,5.469 Z M13,1.94 C12.3141589,1.94 11.775,2.45348496 11.775,3.065 C11.775,3.15677156 11.7867895,3.24646015 11.8098589,3.33310929 L11.8528592,3.46068384 L10.4055601,4.05331785 C11.2206843,3.83462237 12.1141326,3.71949039 13.088,3.71999832 L13.088,3.71999832 L13.2805713,3.72402078 C13.9112997,3.74368262 14.5068095,3.81311989 15.0677358,3.92879016 L14.1299128,3.50011193 C14.1925224,3.36365197 14.225,3.21706746 14.225,3.065 C14.225,2.45348496 13.6858411,1.94 13,1.94 Z" />
</svg>